<svg xmlns="http://www.w3.org/2000/svg" viewBox="0 0 337.77 360"><defs><style>.a{fill:#86c883;fill-rule:evenodd;}.b{fill:#fff;}</style></defs><title>favicon</title><path class="a" d="M135.93,5.46c-3.59,2.93-4.26,8.8-6.24,13.34a29.56,29.56,0,0,0,3.7,4.81c2.12,0.77,4.33.24,6.51,0.57,8.16,1.22,15.4,5.08,21.84,8.5,3,1.59,5.62,2.77,7.38,5.39-0.09,3.33-.73,7.12.56,9.65,8.55,2.09,15.4,4.13,24.4,5.66,2.72,1.48,7.22,2.24,9.91,2.84,0.84-.06,1,0.54,1.42.85,1.85,0.36,3,.12,4.82.86,0.21,0.08.66,0.49,1.42,0.83,1.87,0.89,5.32,1.84,7.09,2.56,0.72,0.28,1.45,1,2,1.14s1.2-.49,1.69-0.29a8.9,8.9,0,0,1,.85,1.15c1.1,0.54,2.55.33,3.68,0.83,0.53,0.24,1.15.85,1.7,1.14,2.39,1.22,4.77,2.58,7.36,4,1.2,0.64,2.29,1.12,3.7,2,1.86,1.11,4.8,2.17,7.08,3.68,8.49,1.62,16,4.25,24.09,6.24a6.92,6.92,0,0,0,2.86-.28c1.37,1,3.37,1.33,5.94,1.13,3.2,2.29,3.85,7.13,6,10.5,4.21,0.42,6.29,3,11,2.83a29.48,29.48,0,0,1,4,4.54c1.49,7-.22,13,0.29,19.56-1,2.86-3.08,4.68-4.54,7.08,3.89-2.07,7.95-4.34,13-1.69-0.67,4.71-1.5,8.51-4.24,11.62a21.38,21.38,0,0,0,.56,6.52,63,63,0,0,1,6.54,4.54c-0.45,3.14-1.71,5.49-1.72,9.07-1.59,2.1-3.51,3.86-4.82,6.24-4.38,1.78-8.87,3.42-11.35,7.09,0.93,3.45-.29,6.51-1.13,9.08-1.16.35-1.6,1.4-3.4,1.13-1.21,3.23-4.2,9.34-2.55,13.61,0.45,1.15,2.63,3.1,4,3.12,4.15,0,4-6.94,9.64-6.24,3.41-5.85,5.13-13.39,9.92-17.87,5.74,1.83,6.07-6,11.63-2.56,1.77-1.7-.56-3.66-0.57-5.39,5.66-6,7.42-15.83,13-21.83,8.24,0,5.37-12.28,13.89-11.06-1,4.1-3.67,7.31-2.56,13.33-1.39,5.31-7.92,6.15-10.2,10.78-2.19,4.43-.24,11.4-3.41,16.16a21.07,21.07,0,0,1-3.4,2c-1.08,3.88-2.6,6.91-2.55,10.77-5,8.35-11.85,19.29-9.36,31.48-0.76,6.14-3.77,10-5.66,15-3.93,2.46-5.22,6.72-4.84,11.34,0.16,1.76,1.36,3.34,1.72,5.1,0.26,1.38,0,3.17.28,4.81,0.71,4.71.54,4.94-1.71,9.07-0.46.85-.62,1.69-1.14,2.55-0.39.69-1.38,1.36-1.69,2s0,1.26-.29,1.69c-0.49.69-1.55,1-2,1.69-1.66,2.67-.72,6-1.13,9.93-0.48,4.58-3.2,8.53-5.68,11.62-0.19,12.75-.15,23.76,2,35.16,1.91,3.66,4.14,7.21,4,11.62-0.08,2-1.24,3.79-2,6-1.05,3-2.66,6.61-2,11.33,0.23,1.56,1.26,2,.85,4-54.11,1.3-110.67.19-165.88,0.56-0.44-5.49-3.5-10.63-6.52-14.46-5.35-.75-8.88-1.59-12.77-3.68-4.35-4.78-4.25-12.51-9.07-17,1.48-4.49.16-9.19,0.85-13.89,0.65-4.42,2.87-8.76,3.68-12.48-0.43-3.94-.08-6.91-0.85-10.5-2.21-3.73-4.87-7-7.08-10.77,1.53-5.78.43-13.83,0.85-19.57-1.66-2.16-1.63-7.33-2.83-10.49-1.33-3.44-5.62-6.22-8.79-8.5C86.1,236,82.41,234,79.23,232c-7.6-4.73-11.89-11.28-17.58-16.44-0.56-1.79-1.79-2.94-2.26-4.82-3.36-4.91-9.59-8.88-15.32-12.47a80.46,80.46,0,0,0-12.47-6,57.19,57.19,0,0,0-7.67-6.23c-3.63-4.77-7.2-8.82-10.21-13.61,1.12-3,2.29-5.77,3.69-9.08,1.1-6.36.79-12.77,3.68-17.58-1.09-3.66-1.93-8.43-1.13-12.77,0.6-3.22,4.39-7.38,6-9.93a5,5,0,0,1,.56-4c-0.15-2-1.35-3-1.13-5.39-2-1.89-3.37-4.71-6.24-5.65-2.63-.89-6.11-0.44-7.93-3.13,0.19-4.82-1.06-11.08,2.54-12.48,1.39,0,3-.15,4,0.28,1.19-.69,1.75-2,3.39-2.27,1-3.14,1.65-6.67,2.56-9.91,5.65-3.9,11.7-7.4,17.28-11.35,2.21,0.91,3.95-.93,6-1.14-0.69-2.81.56-4.9,0.85-7.65,0.26-2.54-.38-5.37,0-7.66,0.12-.72.75-1.52,0.85-2.27,0.28-2.27-.18-4.71,0-7.09,0.15-1.93,1-3.78,1.14-5.67,0.35-4.75-.48-10,0.56-14.18C51,20.78,55,18.75,57.11,16.53c1.25-1.31,1.69-2.84,3.12-3.7,4-.36,6.51,4.58,10.77,5.12,6.77,0.84,12.2-1.29,18.43-1.15,0.93-.77,1.23-2.17,2-3.11A41.14,41.14,0,0,0,99.65,10c3.51-2,5.85-3.78,10.19-5.38a25,25,0,0,1,2.56-1.15c1.93-.34,4.14.68,6.24,0.29,1.41-.29,2.52-2,4.25-2.56,1.93-.65,6-1.48,7.93-1.13,0.66,0.1.08,0.53,0.85,0.85s1.3-.05,1.72.28C134.55,2.17,134.71,4,135.93,5.46Z" transform="translate(-11.11)"/><polygon class="b" points="191.43 289.78 201.6 291.36 194.16 298.48 195.8 308.64 186.73 303.76 177.57 308.46 179.41 298.33 172.11 291.07 182.31 289.69 186.97 280.5 191.43 289.78"/></svg>