<svg xmlns="http://www.w3.org/2000/svg" viewBox="0 0 216 169.5">
  <defs>
    <style>
      .a {
        fill: #86c883;
      }

      .b {
        fill: #c1e1bc;
      }
    </style>
  </defs>
  <title>Artboard 1</title>
  <g>
    <g>
      <path class="a" d="M203,13H13C7.76,13,0,16.49,0,26V156.53c0,5.21,3.45,13,13,13H203c5.22,0,13-3.45,13-13V26C216,20.79,212.54,13,203,13Zm0,148.83H13c-4.72,0-5.31-3.76-5.34-5.34V35.17H208.37V156.53C208.37,161.25,204.61,161.84,203,161.87Z"/>
      <rect class="a" x="40.91" y="89.73" width="24.42" height="24.39"/>
      <rect class="a" x="40.91" y="52.42" width="24.42" height="24.39"/>
      <rect class="a" x="40.91" y="127.04" width="24.42" height="24.39"/>
      <rect class="a" x="78.26" y="89.73" width="24.42" height="24.39"/>
      <rect class="a" x="78.37" y="52.42" width="24.42" height="24.39"/>
      <rect class="a" x="78.37" y="127.04" width="24.42" height="24.39"/>
      <rect class="a" x="115.61" y="89.73" width="24.42" height="24.39"/>
      <rect class="a" x="115.84" y="52.42" width="24.42" height="24.39"/>
      <rect class="a" x="115.84" y="127.04" width="24.42" height="24.39"/>
      <rect class="a" x="152.95" y="89.73" width="24.42" height="24.39"/>
      <rect class="a" x="153.3" y="52.42" width="24.42" height="24.39"/>
      <rect class="a" x="153.3" y="127.04" width="24.42" height="24.39"/>
    </g>
    <path class="b" d="M53.3,0H42.56a6.65,6.65,0,0,0-6.84,6.84V36.32a6.65,6.65,0,0,0,6.84,6.84H53.3a6.65,6.65,0,0,0,6.84-6.84V6.84A6.65,6.65,0,0,0,53.3,0Z"/>
    <path class="b" d="M174.7,0H164a6.65,6.65,0,0,0-6.84,6.84V36.32A6.65,6.65,0,0,0,164,43.17H174.7a6.65,6.65,0,0,0,6.84-6.84V6.84A6.65,6.65,0,0,0,174.7,0Z"/>
  </g>
</svg>
