<svg xmlns="http://www.w3.org/2000/svg" viewBox="0 0 216 123.15">
  <defs>
    <style>
      .a {
        fill: #c1e1bc;
      }

      .b {
        fill: #86c883;
      }
    </style>
  </defs>
  <title>Artboard 1</title>
  <g>
    <path class="a" d="M44.68,54.3A27.15,27.15,0,1,0,17.37,27.15,27.23,27.23,0,0,0,44.68,54.3"/>
    <path class="a" d="M87.94,115.35V91.61s0-34.56-34.76-34.56H34.76S0,57.05,0,91.61v23.75Z"/>
    <path class="a" d="M172.75,54.3a27.15,27.15,0,1,0-27.31-27.15A27.23,27.23,0,0,0,172.75,54.3"/>
    <path class="a" d="M216,115.35V91.61s0-34.56-34.76-34.56H162.82s-34.76,0-34.76,34.56v23.75Z"/>
    <path class="b" d="M108.86,62.09A27.15,27.15,0,1,0,81.54,34.94a27.23,27.23,0,0,0,27.31,27.15"/>
    <path class="b" d="M152.11,123.15V99.4s0-34.56-34.76-34.56H98.93s-34.76,0-34.76,34.56v23.75Z"/>
  </g>
</svg>
