<svg xmlns="http://www.w3.org/2000/svg" viewBox="0 0 216 156.47">
  <defs>
    <style>
      .a {
        fill: #86c883;
      }

      .b {
        fill: #c1e1bc;
      }
    </style>
  </defs>
  <title>Artboard 1</title>
  <g>
    <path class="a" d="M203,156.47H13c-9.52,0-13-7.76-13-13V13C0,3.46,7.76,0,13,0H203c9.52,0,13,7.76,13,13V143.49C216,153,208.24,156.47,203,156.47ZM13,7.63c-1.62,0-5.37.63-5.37,5.34V143.49c0,1.58.62,5.34,5.34,5.34H203c1.58,0,5.34-.62,5.34-5.34V13c0-1.58-.62-5.34-5.34-5.34Z"/>
    <path class="a" d="M193.87,33.77h-174a2.86,2.86,0,0,1,0-5.72h174a2.86,2.86,0,0,1,0,5.72Z"/>
    <path class="a" d="M193.87,55.26h-174a2.86,2.86,0,0,1,0-5.72h174a2.86,2.86,0,0,1,0,5.72Z"/>
    <path class="a" d="M193.87,76.75h-174a2.86,2.86,0,0,1,0-5.72h174a2.86,2.86,0,0,1,0,5.72Z"/>
    <path class="a" d="M142,98.24H19.84a2.86,2.86,0,0,1,0-5.72H142a2.86,2.86,0,0,1,0,5.72Z"/>
    <path class="a" d="M142,119.73H19.84a2.86,2.86,0,1,1,0-5.72H142a2.86,2.86,0,0,1,0,5.72Z"/>
    <path class="b" d="M163,119.26V143l11.46-8.41L187.34,143V119.26a17.87,17.87,0,0,1-24.38,0"/>
    <path class="b" d="M174.94,120.17a18.09,18.09,0,1,0-18.09-18.09,18.09,18.09,0,0,0,18.09,18.09"/>
  </g>
</svg>
