<svg xmlns="http://www.w3.org/2000/svg" viewBox="0 0 216 216">
  <defs>
    <style>
      .a {
        fill: #86c883;
      }
    </style>
  </defs>
  <title>Artboard 1</title>
  <path class="a" d="M108,0A108,108,0,0,1,216,108.31C216,167.75,167.36,216,107.56,216,48.18,216,0,167.3,0,107.43,0,48.28,48.58,0,108,0ZM28.6,107.94c0,43.62,35.62,79.41,79.05,79.45,43.92,0,79.73-35.53,79.75-79.2a79.4,79.4,0,1,0-158.8-.25Z"/>
  <path class="a" d="M53.26,117.72a14.4,14.4,0,0,1,1.58-2.52q8.91-9,17.91-17.94c1.71-1.7,3.24-1.69,5,0,4.18,4.13,8.32,8.31,12.48,12.46,2.39,2.38,3.51,2.39,5.88,0l41.17-41.13c2.69-2.68,3.74-2.69,6.38-.08q8.47,8.37,16.93,16.74c2.34,2.32,2.36,3.42.08,5.71q-32.34,32.35-64.69,64.69c-2.18,2.17-3.41,2.18-5.57,0q-17.62-17.6-35.21-35.24A19.33,19.33,0,0,1,53.26,117.72Z"/>
</svg>
