<?xml version="1.0" encoding="utf-8"?>
<!-- Generator: Adobe Illustrator 21.0.2, SVG Export Plug-In . SVG Version: 6.00 Build 0)  -->
<svg version="1.1" id="Layer_1" xmlns="http://www.w3.org/2000/svg" xmlns:xlink="http://www.w3.org/1999/xlink" x="0px" y="0px"
	 viewBox="0 0 241.9 382.2" style="enable-background:new 0 0 241.9 382.2;" xml:space="preserve">
<style type="text/css">
	.st0{fill:#FFCE00;}
	.st1{stroke:#000000;stroke-width:0.3737;stroke-miterlimit:10;}
</style>
<path class="st0" d="M121,378.8c-64.8,0-117.5-52.7-117.5-117.5V121C3.4,56.1,56.1,3.4,121,3.4S238.5,56.1,238.5,121v140.3
	C238.5,326.1,185.8,378.8,121,378.8z"/>
<g>
	<path class="st1" d="M121,0.2L121,0.2C54.3,0.2,0.2,54.3,0.2,121v61.3v71v8C0.2,328,54.3,382,121,382h0
		c66.7,0,120.8-54.1,120.8-120.8v-8v-71V121C241.7,54.3,187.7,0.2,121,0.2z M238.5,261.3c0,64.8-52.7,117.5-117.5,117.5
		S3.4,326.1,3.4,261.3v-8h33.1v12.5c0,46.6,37.9,84.6,84.6,84.6c46.6,0,84.6-37.9,84.6-84.6v-12.5h32.9V261.3z M54,96.6l3.5,4.8
		l-8.6,9.9l27.5,29.3l17.8,5.9l-4.4,33.9l20.5-20.5l27.7-10.3l14.3,18l-19.3,14.6H67.7l7.3-28.9L59.1,136l-19.2,5.5v-24.6
		c0-12.2,2.7-23.8,7.6-34.1v20.5L54,96.6z M107.1,57.4H95.2l4.4-4l-18.9-4h-4.8c12.9-8.7,28.5-13.8,45.2-13.8
		c33.3,0,62,20.2,74.5,49l-2.6,1.8l-2.2-5.1l-4.6,4.8l-2.9,11.9l2.4,5.9l-12.5,15.6l19.4-13.6l4.8,2.2l-24.9,24.4l-36.1,3.1l1.3-7.5
		l-9.2-2.6l6.8-6.6l-21.1,2.9l3.5-6.2l15.8-1.8l-18-5.3l-22.7,10.1L77.2,108l-0.7-13.4l5.1-12.8l-6.8-7.5l5.5-0.7l-9-3.3l1.3,9.2
		L66.6,70l4.2-6.4l14.3-3.3l24.7,3.3L107.1,57.4z M169.4,158.9l-15.2-10.6l-0.4-8.1h4.2l0.7,2.6l17.4,7.9l25.9-40.9
		c0.2,2.3,0.3,4.7,0.3,7v65.4h-36.1l8.8-10.9L169.4,158.9z M54.7,152.1l2.9-2.4l12.1,4.8l-13.9,27.8H39.9v-34.2l15,17.2L54.7,152.1z
		 M238.3,185.7v64.2H3.6v-64.2H238.3z M96.3,315.2H84.4l-2.6,4.8l2.6,5.7l-11.7-5.1l4-14.1l-13.9-25.5l-6.3,18.3l10.9,14.5l-8.6,4
		c-11.8-14.1-19-32.3-19-52.1v-12.5h2.8l8.8,15.9l5.2-0.2l15-14.4l1.2,10.4l-4.6,9l5.9,1.4l-2.2,8.5l6.4,15.4l19.4-37.6l-2.8-8.4h12
		l-10.6,24.1l19.8-8.4L137,270l-4.6,16.7l30.2,17.8l9.2-3.5l11,6.4l4.4-3.7l3.4,3.9c-14.2,23.5-40.1,39.3-69.5,39.3
		c-19.2,0-36.8-6.7-50.7-17.8l9.2,1.7l5.7,6.8l5.6-3.5l8.3,0.9l2.8,7l5.8-12.1L96.3,315.2z M54.7,253.2h5l-2,3.8L54.7,253.2z
		 M128.2,257.7l3-4.5h4.1l4.1,8.7L128.2,257.7z M183.5,280.3l-6.8,6.1l4.2,7.3l-24.2-13.3l11-21.5l-3-5.6h37.7v12.5
		c0,6.9-0.9,13.6-2.5,20C194.5,283.8,183.5,280.3,183.5,280.3z M205.6,182.3v-65.4c0-46.6-37.9-84.6-84.6-84.6
		c-46.6,0-84.6,37.9-84.6,84.6v65.4H3.4V121C3.4,56.1,56.1,3.4,121,3.4S238.5,56.1,238.5,121v61.3H205.6z"/>
	<polygon class="st1" points="84.2,70.4 87.3,78.1 82.9,78.8 88.8,87.1 100.5,88.7 108.3,100.8 120.3,100.8 130.9,96.8 132.4,90.9 
		126.7,79.9 130.4,77.6 127.1,70.2 127.1,65.3 123.6,62.7 114.4,64.9 115,71.9 121.8,71.9 123.6,75.7 112.4,81.6 111.3,86 
		116.3,91.1 108.2,92.4 105.1,80.3 97.8,79 92.8,74.4 96.1,68.4 	"/>
	<polygon class="st1" points="84.4,96.8 99.1,112.2 113.7,104.3 102.9,104.3 	"/>
	<polygon class="st1" points="145.2,75.5 152,100.8 136.4,112.2 159.5,106.9 141.2,129.6 165.4,123 173.6,104.5 160.6,70.4 
		163.7,67.1 158.8,57 161,54.3 150.2,53.2 148.9,48.2 139,51.3 139.2,57.6 134.6,54.1 134.6,66.7 139.9,73 	"/>
	<path class="st1" d="M16.1,238.3c0,0.6-0.1,1.1-0.1,1.5c0,0.4-0.1,0.8-0.2,1.1c-0.1,0.3-0.3,0.7-0.4,1.2c-0.1,0.3-0.3,0.6-0.4,0.8
		c-0.1,0.2-0.3,0.4-0.6,0.7h11.7c-0.2-0.3-0.4-0.5-0.5-0.7c-0.1-0.2-0.2-0.5-0.4-0.8c-0.2-0.4-0.3-0.8-0.4-1.1
		c-0.1-0.3-0.2-0.7-0.2-1.1c-0.1-0.4-0.1-0.9-0.1-1.5c0-0.6,0-1.4,0-2.2v-37.9c0-1.1,0-2,0-2.7c0-0.7,0.1-1.3,0.2-1.8
		c0.1-0.5,0.3-0.9,0.4-1.3c0.2-0.3,0.4-0.7,0.7-1.1H14.7c0.3,0.4,0.6,0.8,0.7,1.1c0.2,0.3,0.3,0.8,0.4,1.3c0.1,0.5,0.2,1.1,0.2,1.8
		c0,0.7,0.1,1.6,0.1,2.7v37.9C16.1,237,16.1,237.7,16.1,238.3z"/>
	<path class="st1" d="M31.3,193.7c0.1,0.5,0.2,1.1,0.2,1.8c0,0.7,0.1,1.6,0.1,2.7v31.2c0,2.1,0,3.8,0,5c0,1.2,0.1,2.2,0.2,3
		c0.1,0.8,0.2,1.4,0.4,1.8c0.2,0.5,0.4,1,0.8,1.5c0.7,1.2,1.8,2.1,3.3,2.7c1.5,0.7,3.3,1,5.3,1c4.3,0,7.3-1.3,8.8-3.9
		c0.9-1.6,1.4-3.4,1.5-5.5c0-0.5,0.1-1.3,0.1-2.2c0-1,0-2.2,0-3.5v-31.2c0-1.1,0-2,0.1-2.7c0-0.7,0.1-1.3,0.2-1.8
		c0.1-0.5,0.3-0.9,0.4-1.3c0.2-0.3,0.4-0.7,0.7-1.1H42.6c0.2,0.3,0.4,0.6,0.5,0.8c0.1,0.2,0.2,0.4,0.3,0.7c0.1,0.5,0.2,1.2,0.2,2
		c0.1,0.9,0.1,2,0.1,3.4v31v3.9c0,1.8-0.1,3-0.4,3.7c-0.3,0.7-0.8,1.1-1.5,1.1c-0.8,0-1.3-0.4-1.5-1.1c-0.3-0.7-0.4-2-0.4-3.8v-3.9
		v-31c0-1.2,0-2.2,0-3c0-0.8,0.1-1.4,0.2-1.9c0.1-0.5,0.2-0.9,0.4-1.2c0.2-0.3,0.4-0.6,0.7-0.8H30c0.3,0.4,0.6,0.8,0.8,1.1
		C31,192.8,31.2,193.2,31.3,193.7z"/>
	<path class="st1" d="M59.1,238.3c0,0.6-0.1,1.1-0.1,1.5c0,0.4-0.1,0.8-0.2,1.1c-0.1,0.3-0.3,0.7-0.4,1.2c-0.1,0.3-0.3,0.6-0.4,0.8
		c-0.1,0.2-0.3,0.4-0.6,0.7h11.7c-0.2-0.3-0.4-0.5-0.5-0.7c-0.1-0.2-0.2-0.5-0.4-0.8c-0.2-0.4-0.3-0.8-0.4-1.1
		c-0.1-0.3-0.2-0.7-0.2-1.1c-0.1-0.4-0.1-0.9-0.1-1.5c0-0.6,0-1.4,0-2.2v-10.7h1.9c3.6,0,6.1-0.7,7.6-2.2c0.8-0.8,1.3-2,1.7-3.6
		c0.4-1.6,0.6-3.4,0.6-5.4v-12c0-4.6-1.1-7.7-3.2-9.1c-0.5-0.3-1.1-0.6-1.7-0.8c-0.6-0.2-1.3-0.4-2-0.6c-0.8-0.1-1.7-0.2-2.8-0.3
		c-1.1,0-2.3-0.1-3.8-0.1h-8c0.3,0.4,0.6,0.8,0.7,1.1c0.2,0.3,0.3,0.8,0.4,1.3c0.1,0.5,0.2,1.1,0.2,1.8c0,0.7,0.1,1.6,0.1,2.7v37.9
		C59.1,237,59.1,237.7,59.1,238.3z M67.4,198.9h1.2c1,0,1.7,0.2,2,0.7c0.3,0.5,0.5,1.4,0.5,2.7v12.1c0,1.3-0.2,2.2-0.5,2.6
		c-0.3,0.5-0.9,0.7-1.8,0.7h-1.4V198.9z"/>
	<path class="st1" d="M90.4,240.9c0-0.2,0-0.5,0-0.7c0-0.2,0-0.5,0-0.8l0.2-1.8l0.4-4.5h5.5l0.5,5.1c0.1,0.5,0.2,1.1,0.2,1.7
		c0,0.6,0.1,1.1,0.1,1.4c0,0.4-0.1,0.8-0.2,1.1c-0.1,0.3-0.3,0.7-0.7,1.2h10.1c-0.8-1-1.4-2.8-1.7-5.6l-4.8-42.2
		c-0.1-0.4-0.1-0.9-0.1-1.3c0-0.4,0-0.8,0-1.1c0-1,0.3-1.8,0.8-2.2H85.6c0.4,0.5,0.7,1,0.8,1.5c0.1,0.5,0.2,1.3,0.2,2.3v0.8
		l-3.9,42.7c-0.3,2.6-0.8,4.3-1.7,5h10.1C90.6,242.7,90.4,241.8,90.4,240.9z M93.5,201.3l2.1,24.1h-3.9L93.5,201.3z"/>
	<path class="st1" d="M107.7,199.4c0.8-0.3,1.6-0.5,2.6-0.5h1.5v37.2c0,0.9,0,1.6,0,2.2c0,0.6-0.1,1.1-0.1,1.5
		c0,0.4-0.1,0.8-0.2,1.1c-0.1,0.3-0.3,0.7-0.4,1.2c-0.1,0.3-0.3,0.6-0.4,0.8c-0.1,0.2-0.3,0.4-0.5,0.7h11.7
		c-0.2-0.3-0.4-0.5-0.5-0.7c-0.1-0.2-0.2-0.5-0.4-0.8c-0.2-0.4-0.3-0.8-0.4-1.1c-0.1-0.3-0.2-0.7-0.2-1.2c-0.1-0.4-0.1-1-0.1-1.5
		c0-0.6,0-1.3,0-2.2v-37.2h2.2c0.8,0,1.5,0.1,2,0.3c0.5,0.2,0.9,0.6,1.4,1.1v-9.1h-19.4v9.1c0.3-0.3,0.6-0.5,0.7-0.6
		C107.4,199.7,107.5,199.5,107.7,199.4z"/>
	<path class="st1" d="M152.2,238.6c0,0.6-0.1,1.1-0.1,1.5c0,0.4-0.1,0.8-0.2,1.2c-0.1,0.3-0.3,0.7-0.4,1.2c-0.1,0.3-0.3,0.6-0.4,0.8
		c-0.1,0.2-0.3,0.4-0.6,0.7h9.9c2.3,0,4.2-0.2,5.7-0.6c1.5-0.4,2.6-1,3.5-1.9c0.9-0.9,1.4-2.1,1.8-3.7c0.3-1.6,0.5-3.6,0.5-6v-27
		c0-1.8,0-3.2-0.1-4.4c0-1.1-0.2-2.1-0.3-2.9c-0.2-0.8-0.4-1.4-0.7-2c-0.3-0.5-0.7-1.1-1.1-1.6c-1-1.1-2.2-1.9-3.6-2.3
		c-1.4-0.5-3.2-0.7-5.4-0.7h-9.7c0.3,0.4,0.6,0.8,0.7,1.1c0.2,0.3,0.3,0.8,0.4,1.3c0.1,0.5,0.2,1.1,0.2,1.9c0,0.7,0.1,1.6,0.1,2.7
		v38.4C152.2,237.3,152.2,238,152.2,238.6z M160.2,198.9h1c0.5,0,0.8,0.1,1.1,0.2c0.3,0.1,0.5,0.4,0.7,0.7c0.2,0.4,0.3,0.9,0.3,1.5
		c0,0.6,0.1,1.5,0.1,2.6v26.7v2.4c0,2.1-0.8,3.2-2.2,3.2h-1.1V198.9z"/>
	<path class="st1" d="M180.4,242.1c0.9,0.9,2,1.7,3.4,2.2c1.4,0.5,2.9,0.8,4.4,0.8c1.6,0,3.1-0.3,4.5-0.9c1.4-0.6,2.5-1.3,3.4-2.3
		c1.6-1.8,2.4-4.7,2.4-8.6v-3.9c0-1.3,0.1-2.3,0.3-3.1c0.2-0.8,0.5-1.6,1-2.5h-11c0.5,0.7,0.8,1.4,0.9,2.2c0.2,0.8,0.3,1.8,0.3,3.2
		v3.9c0,1.6-0.1,2.8-0.4,3.4c-0.2,0.6-0.7,0.9-1.4,0.9c-0.7,0-1.2-0.3-1.5-0.9c-0.3-0.6-0.4-1.6-0.4-3.1v-31.8
		c0-1.3,0.2-2.2,0.5-2.8c0.3-0.6,0.8-0.9,1.5-0.9c0.7,0,1.2,0.2,1.4,0.7c0.2,0.5,0.3,1.4,0.3,2.8v2.7c0,0.7,0,1.4-0.1,1.9
		c0,0.5-0.1,1-0.2,1.4c-0.1,0.4-0.2,0.8-0.4,1.2c-0.2,0.3-0.4,0.7-0.7,1.2h11.1c-0.5-1.1-0.9-2-1.1-2.7c-0.2-0.7-0.3-1.7-0.3-2.8
		V201c0-2.2-0.2-4-0.5-5.2c-0.3-1.3-0.9-2.3-1.8-3c-0.9-0.8-2-1.5-3.4-1.9c-1.4-0.4-2.8-0.7-4.3-0.7c-3.2,0-5.7,0.9-7.5,2.8
		c-1,1-1.8,2.3-2.1,3.7c-0.4,1.4-0.6,3.4-0.6,5.9v28.8c0,3,0.2,5.3,0.5,6.9C178.8,239.9,179.5,241.2,180.4,242.1z"/>
	<path class="st1" d="M208.9,199.1h8.3l-9.8,38.6c-0.2,0.7-0.4,1.5-0.7,2.4c-0.3,0.9-0.5,1.7-0.8,2.2c-0.1,0.4-0.3,0.6-0.4,0.8
		c-0.1,0.2-0.3,0.4-0.5,0.6h10.4c-0.1-0.3-0.2-0.5-0.2-0.7c0-0.2,0-0.4,0-0.7c0-0.4,0-0.9,0.1-1.6c0.1-0.7,0.2-1.3,0.4-1.9
		l10.1-39.9v-7.3h-16.4c-1.1,0-2-0.1-2.6-0.2c-0.6-0.1-1.3-0.3-2.1-0.6v9.1c0.5-0.3,1.1-0.5,1.7-0.7
		C207,199.2,207.8,199.1,208.9,199.1z"/>
	<circle class="st1" cx="136.2" cy="217.9" r="5"/>
	<polygon class="st1" points="15.3,154.6 13.1,154.6 13.1,160.1 15.3,160.1 15.5,158.7 25.2,160.4 25.2,160.5 13.1,163.3 
		13.1,165.4 25.2,168.2 25.2,168.3 15.5,170 15.3,168.6 13.1,168.6 13.1,174.1 15.3,174.1 15.4,172.9 30.8,169.8 30.8,167.1 
		19.1,164.4 19.1,164.3 30.8,161.6 30.8,158.9 15.4,155.9 	"/>
	<polygon class="st1" points="28.3,146.3 15.6,146.3 15.3,144.7 13.1,144.7 13.1,150.9 15.3,150.9 15.6,149.3 28.3,149.3 
		28.7,150.9 30.8,150.9 30.8,144.7 28.7,144.7 	"/>
	<path class="st1" d="M26.2,129.2c-1.4,0-2.6,0.4-3.5,1.3c-0.9,0.8-1.6,2.1-2.2,3.7c-0.4,1.1-0.8,1.9-1.2,2.4
		c-0.4,0.5-0.9,0.7-1.5,0.7c-0.6,0-1.2-0.2-1.6-0.7c-0.4-0.4-0.6-1.1-0.6-1.9c0-0.6,0.1-1.1,0.2-1.6s0.3-0.9,0.5-1.1l2.4-0.4v-2.2
		h-3.6c-0.7,0.6-1.2,1.4-1.7,2.4c-0.4,0.9-0.6,2-0.6,3.1c0,1.5,0.5,2.8,1.4,3.8c0.9,1,2.1,1.5,3.5,1.5c1.4,0,2.6-0.5,3.4-1.4
		c0.8-0.9,1.6-2.2,2.2-4c0.4-1,0.8-1.7,1.2-2.1c0.4-0.4,1-0.6,1.6-0.6c0.7,0,1.2,0.2,1.6,0.6c0.4,0.4,0.6,1,0.6,1.9
		c0,0.6-0.1,1.2-0.3,1.7c-0.2,0.5-0.4,0.9-0.7,1.2l-2.5,0.3v2.3h3.7c0.8-0.6,1.4-1.4,1.8-2.4c0.4-0.9,0.7-2,0.7-3.2
		c0-1.6-0.4-3-1.3-4C28.9,129.7,27.7,129.2,26.2,129.2z"/>
	<path class="st1" d="M28.5,113.1L25,113l0,2.2l2.4,0.3c0.3,0.3,0.6,0.6,0.8,1.1c0.2,0.5,0.3,1,0.3,1.6c0,1.3-0.6,2.2-1.7,2.9
		c-1.1,0.7-2.6,1-4.4,1l-0.6,0c-1.8,0-3.2-0.4-4.4-1.1c-1.1-0.7-1.6-1.7-1.6-3c0-0.6,0.1-1.1,0.3-1.6s0.5-0.8,0.8-1.1l2.4-0.3l0-2.2
		l-3.5-0.1c-0.8,0.6-1.5,1.3-2,2.3c-0.5,0.9-0.8,1.9-0.8,3.1c0,2,0.8,3.6,2.4,4.9c1.6,1.3,3.7,1.9,6.3,2l0.6,0
		c2.6,0,4.7-0.6,6.4-1.8c1.7-1.2,2.5-2.9,2.5-4.8c0-1.1-0.2-2.2-0.7-3.1C29.9,114.5,29.3,113.7,28.5,113.1z"/>
	<path class="st1" d="M25,94.6l-0.3,0c-2.5-0.5-4.7-0.2-6.6,0.7c-1.9,0.9-3,2.4-3.4,4.3c-0.4,2,0.2,3.7,1.6,5.2c1.5,1.5,3.4,2.5,6,3
		l0.3,0c2.5,0.5,4.8,0.2,6.7-0.7c1.9-0.9,3-2.3,3.4-4.3c0.4-2-0.2-3.7-1.6-5.2C29.6,96.1,27.6,95.1,25,94.6z M29.9,102.4
		c-0.2,1.2-1,2-2.2,2.4c-1.2,0.4-2.8,0.4-4.6,0.1l-0.3-0.1c-1.8-0.3-3.2-0.9-4.2-1.7c-1-0.8-1.4-1.8-1.2-3c0.2-1.2,1-2,2.2-2.5
		c1.2-0.4,2.8-0.5,4.6-0.1l0.3,0.1c1.8,0.3,3.3,0.9,4.3,1.7C29.8,100.1,30.1,101.1,29.9,102.4z"/>
	<polygon class="st1" points="25.3,73.3 23.3,72.5 22.8,74 21.1,78.2 23.1,79 24,77.7 32.8,81 32.8,81.1 19.5,82.4 18.5,85.2 
		17.9,86.6 19.9,87.4 20.8,86.1 32.7,90.6 32.4,92.2 34.4,93 36.6,87.2 34.6,86.5 33.7,87.8 25,84.5 25,84.4 38.2,83.1 39.3,80.3 
		25.1,74.9 	"/>
	<path class="st1" d="M43.3,63.9c-1.2-0.7-2.5-1-3.7-0.7c-1.2,0.3-2.5,1-3.8,2.1c-1,0.8-1.7,1.2-2.3,1.4c-0.6,0.2-1.1,0.1-1.6-0.2
		c-0.6-0.3-0.9-0.8-1-1.4c-0.1-0.6,0-1.2,0.4-1.9c0.3-0.5,0.6-0.9,1-1.2c0.4-0.3,0.7-0.6,1-0.7l2.3,0.9l1.1-1.9l-3.1-1.9
		c-0.9,0.2-1.8,0.6-2.6,1.2c-0.8,0.6-1.5,1.4-2.1,2.3c-0.8,1.3-1,2.7-0.8,4c0.3,1.3,1,2.4,2.2,3.1c1.2,0.7,2.5,1,3.6,0.6
		c1.2-0.3,2.5-1.1,3.9-2.3c0.8-0.7,1.5-1.1,2.1-1.2c0.6-0.1,1.1,0,1.7,0.3c0.6,0.3,0.9,0.8,1,1.4c0.1,0.6,0,1.2-0.4,1.9
		c-0.3,0.5-0.7,1-1.1,1.3c-0.4,0.3-0.8,0.6-1.2,0.7l-2.3-1l-1.2,2l3.2,1.9c1-0.1,1.9-0.5,2.8-1.1c0.9-0.6,1.6-1.4,2.2-2.4
		c0.8-1.4,1.2-2.8,0.9-4.1C45.4,65.7,44.6,64.7,43.3,63.9z"/>
	<polygon class="st1" points="50.3,58.4 40.4,50.5 41.1,49 39.4,47.7 35.6,52.5 37.3,53.8 38.6,52.8 48.5,60.7 47.8,62.2 49.4,63.5 
		53.3,58.7 51.6,57.4 	"/>
	<polygon class="st1" points="55.9,34.3 54.4,32.7 53.3,33.8 49.9,36.9 51.4,38.4 52.8,37.6 59.2,44.5 59.1,44.6 46.7,39.9 
		44.5,41.9 43.3,43 44.8,44.6 46.2,43.8 54.8,53.1 53.9,54.4 55.4,56 59.8,51.8 58.4,50.2 57,51.1 50.6,44.2 50.6,44.1 63.1,48.8 
		65.3,46.8 55,35.6 	"/>
	<path class="st1" d="M75.6,28.5c-0.4-0.7-0.9-1.2-1.5-1.4c-0.6-0.2-1.3-0.2-1.9,0.2c-0.6,0.4-1,0.9-1.1,1.5c-0.1,0.7,0,1.4,0.4,2.1
		l0.5,1c0.4,0.7,0.9,1.2,1.5,1.4c0.6,0.2,1.3,0.2,1.9-0.2c0.6-0.4,1-0.9,1.2-1.5c0.1-0.7,0-1.3-0.4-2L75.6,28.5z"/>
	<path class="st1" d="M99.6,13.9l1.4-0.8l-0.6-2.1l-5.9,1.6l0.6,2.1l1.6-0.1l2.4,8.9c0.3,1.1,0.3,2-0.1,2.7s-1,1.2-1.9,1.4
		c-0.9,0.2-1.7,0.2-2.3-0.3c-0.7-0.4-1.1-1.2-1.5-2.3l-2.4-8.9l1.4-0.8l-0.6-2.1l-1.5,0.4l-2.9,0.8L86,15.1l0.6,2.1l1.6-0.1l2.4,8.9
		c0.5,1.9,1.5,3.2,2.8,4c1.3,0.8,2.9,0.9,4.6,0.4c1.7-0.5,3-1.4,3.7-2.7c0.8-1.3,0.9-2.9,0.4-4.9L99.6,13.9z"/>
	<path class="st1" d="M117.9,10.8c-1.1-1-2.4-1.4-4.1-1.2l-5.4,0.4l-1.6,0.1l0.2,2.1l1.6,0.2l1,12.7l-1.5,0.5l0.2,2.1l6.1-0.5
		l-0.2-2.1l-1.6-0.2l-0.3-3.9l2.5-0.2c1.7-0.1,3-0.7,3.9-1.8c0.9-1.1,1.3-2.5,1.1-4.2C119.6,13.1,119,11.8,117.9,10.8z M116.3,17.2
		c-0.4,0.6-1,0.9-1.8,1l-2.5,0.2l-0.5-5.8l2.5-0.2c0.8-0.1,1.5,0.2,1.9,0.7s0.7,1.2,0.8,2.1C116.8,15.9,116.7,16.6,116.3,17.2z"/>
	<path class="st1" d="M132.6,9.9l-5.4-0.5l-1.6-0.2l-0.2,2.1l1.5,0.5l-1.3,12.6l-1.6,0.2l-0.2,2.1l6.1,0.6l0.2-2.1l-1.5-0.5l0.4-3.9
		l2.5,0.2c1.7,0.2,3.1-0.2,4.1-1.1c1.1-0.9,1.7-2.2,1.9-3.9c0.2-1.7-0.2-3.1-1.1-4.2C135.5,10.8,134.2,10.1,132.6,9.9z M133.7,17.8
		c-0.5,0.5-1.1,0.7-1.9,0.6l-2.5-0.2l0.6-5.8l2.5,0.2c0.8,0.1,1.4,0.4,1.8,1c0.4,0.6,0.5,1.3,0.4,2.2
		C134.4,16.7,134.1,17.3,133.7,17.8z"/>
	<polygon class="st1" points="154.1,19.5 155.4,14.9 145.7,12.1 144.2,11.7 143.6,13.7 145,14.5 141.5,26.7 139.9,26.6 139.3,28.7 
		150.6,31.9 151.9,27.2 149.7,26.6 149,28.6 144.4,27.3 145.8,22.5 150.6,23.8 151.4,21.2 146.6,19.8 147.8,15.5 152.3,16.8 
		151.9,18.9 	"/>
	<path class="st1" d="M167.9,20.2l-4.5-2.2l-1.4-0.7l-0.9,1.9l1.3,1l-5.6,11.4l-1.6-0.4l-0.9,1.9l5.5,2.7l0.9-1.9l-1.3-1l2.1-4.2
		l2.2,1.1c0.6,0.3,1,0.8,1.1,1.4c0.1,0.6,0,1.3-0.4,2.1l-0.4,0.9c-0.4,0.9-0.6,1.7-0.5,2.4c0.1,0.7,0.5,1.3,1.4,1.7l1.4,0.7l0.9-1.9
		l-0.3-0.2c-0.2-0.2-0.4-0.4-0.4-0.6c0-0.2,0.1-0.5,0.2-0.9l0.4-0.8c0.5-1,0.7-1.8,0.7-2.6c0-0.8-0.4-1.5-1-2.2
		c0.9,0,1.6-0.2,2.3-0.7c0.6-0.4,1.2-1,1.6-1.8c0.7-1.5,0.8-2.8,0.4-4C170.4,22,169.4,21,167.9,20.2z M167.7,26.1
		c-0.4,0.7-0.8,1.2-1.4,1.4c-0.6,0.2-1.2,0.1-1.9-0.3l-1.8-0.9l2.2-4.5l1.9,0.9c0.7,0.4,1.2,0.8,1.3,1.4
		C168.2,24.7,168.1,25.4,167.7,26.1z"/>
	<path class="st1" d="M192.4,44.3c1.1-1.3,1.6-2.6,1.6-4c-0.1-1.4-0.7-2.7-2-3.8l-4.1-3.6l-1.2-1l-1.4,1.6l0.9,1.3l-8.4,9.5
		l-1.4-0.8l-1.4,1.6l4.6,4l1.4-1.6l-1-1.3l2.6-3l1.9,1.6c1.3,1.1,2.6,1.6,4,1.5C190,46.3,191.3,45.6,192.4,44.3z M186.4,42.9
		l-1.9-1.6l3.8-4.4l1.9,1.6c0.6,0.5,0.9,1.2,0.9,1.9s-0.4,1.4-0.9,2c-0.5,0.6-1.2,1-1.8,1.1C187.7,43.7,187,43.5,186.4,42.9z"/>
	<polygon class="st1" points="196.4,60 194.6,61.2 191.6,57.5 195.6,54.3 198.7,58.2 200.8,56.5 197.7,52.6 201.1,49.8 204.1,53.4 
		202.6,54.9 204,56.6 207.7,53.6 201.4,45.8 200.4,44.5 198.7,45.9 199.4,47.3 189.6,55.3 188.3,54.4 186.7,55.7 194,64.8 
		197.8,61.7 	"/>
	<polygon class="st1" points="217.2,73.5 219.1,72.5 218.3,71.1 216.1,67.1 214.2,68.2 214.7,69.7 206.5,74.3 206.4,74.2 214,63.3 
		212.5,60.7 211.8,59.3 209.9,60.3 210.3,61.9 199.2,68 198.1,66.8 196.3,67.8 199.2,73.2 201.1,72.1 200.7,70.6 208.9,66 
		208.9,66.1 201.4,77.1 202.8,79.7 216.1,72.3 	"/>
	<polygon class="st1" points="208.5,87.5 220.4,83.1 221.3,84.5 223.3,83.7 221.2,78 219.2,78.7 219.4,80.4 207.5,84.8 206.6,83.4 
		204.6,84.1 206.8,89.9 208.7,89.2 	"/>
	<polygon class="st1" points="226.3,104.7 228.4,104.2 228.1,102.7 227.2,98.3 225.1,98.7 225,100.3 215.9,102.2 215.8,102.2 
		226.3,93.9 225.6,91 225.3,89.5 223.2,89.9 223.2,91.5 210.8,94.1 210.1,92.7 208,93.1 209.3,99.1 211.4,98.7 211.4,97 220.6,95.1 
		220.6,95.1 210.2,103.4 210.8,106.3 225.7,103.2 	"/>
	<path class="st1" d="M216.4,122.3c1.4,0,2.6-0.5,3.5-1.4c0.9-0.9,1.5-2.1,2-3.8c0.4-1.2,0.8-2,1.1-2.4c0.4-0.5,0.9-0.7,1.5-0.7
		c0.6,0,1.2,0.2,1.6,0.6c0.4,0.4,0.6,1,0.7,1.9c0,0.6,0,1.1-0.2,1.6c-0.1,0.5-0.3,0.9-0.5,1.1l-2.4,0.5l0.1,2.2l3.6-0.1
		c0.7-0.7,1.2-1.5,1.6-2.4c0.4-0.9,0.6-2,0.5-3.1c-0.1-1.5-0.6-2.8-1.5-3.8c-0.9-1-2.1-1.5-3.6-1.4c-1.4,0-2.6,0.5-3.4,1.5
		c-0.8,0.9-1.5,2.3-2,4.1c-0.3,1-0.7,1.7-1.1,2.2c-0.4,0.4-0.9,0.6-1.6,0.7c-0.7,0-1.2-0.2-1.6-0.6c-0.4-0.4-0.6-1-0.7-1.8
		c0-0.6,0.1-1.2,0.2-1.7c0.2-0.5,0.4-0.9,0.7-1.2l2.5-0.4l-0.1-2.3l-3.7,0.1c-0.8,0.7-1.4,1.5-1.8,2.4c-0.4,1-0.6,2-0.6,3.2
		c0.1,1.6,0.5,2.9,1.4,3.9C213.6,121.9,214.9,122.4,216.4,122.3z"/>
	<path class="st1" d="M226.8,127.8h-9.2c-2,0-3.5,0.5-4.6,1.6c-1.1,1.1-1.6,2.5-1.6,4.3c0,1.8,0.5,3.2,1.6,4.3s2.6,1.6,4.6,1.6h9.2
		l0.4,1.6h2.1v-6.1h-2.1l-0.4,1.6h-9.2c-1.2,0-2-0.3-2.6-0.8c-0.6-0.5-0.9-1.3-0.9-2.2c0-0.9,0.3-1.6,0.9-2.2
		c0.6-0.5,1.5-0.8,2.6-0.8h9.2l0.4,1.6h2.1v-1.6v-3v-1.6h-2.1L226.8,127.8z"/>
	<polygon class="st1" points="226.8,146.7 214.1,146.7 213.7,145.1 211.6,145.1 211.6,156.2 216.5,156.2 216.5,153.9 214.3,153.8 
		214.3,149.6 226.8,149.6 227.1,151.2 229.3,151.2 229.3,149.6 229.3,146.7 229.3,145.1 227.1,145.1 	"/>
	<path class="st1" d="M213.7,160h-2.1v5h2.1l0.2-1l2.4,0.7v4.8l-2.4,0.7l-0.2-1h-2.1v5h2.1l0.2-1.1l15.4-4.5v-3l-15.4-4.5L213.7,160
		z M219,165.4l6.2,1.7v0.1l-6.2,1.7V165.4z"/>
	<polygon class="st1" points="28.3,306.6 30.7,312.1 33.7,310.8 31.3,305.3 36.7,303 38.9,308.1 36.6,309.3 37.7,311.7 43,309.4 
		37.6,296.8 35.3,297.8 35.6,299.7 21.6,305.7 20.5,304.2 18.1,305.2 20.9,311.7 23.3,310.7 22.9,308.9 	"/>
	<polygon class="st1" points="45.7,318.9 47.1,320.2 49.2,318.8 45.2,312.8 43.1,314.3 43.8,316 31.1,324.5 29.7,323.2 27.6,324.6 
		31.6,330.6 33.7,329.1 33,327.4 	"/>
	<polygon class="st1" points="62,336.4 63.8,334.6 62.5,333.3 58.8,329.6 57,331.4 58,333 50,341 50,340.9 55.1,325.9 52.7,323.5 
		51.4,322.2 49.6,324 50.6,325.6 39.8,336.4 38.2,335.4 36.4,337.2 41.5,342.3 43.3,340.5 42.3,338.8 50.2,330.9 50.3,330.9 
		45.1,345.9 47.5,348.3 60.4,335.4 	"/>
	<polygon class="st1" points="70.2,342.4 72,343 73.4,340.9 67.5,337 66.1,339.1 67.4,340.5 58.9,353.1 57.1,352.5 55.7,354.6 
		61.6,358.6 63.1,356.4 61.8,355 	"/>
	<path class="st1" d="M85.9,347.7c-0.8-0.9-1.8-1.6-3-2.2c-1.6-0.7-3.2-0.8-4.7-0.3c-1.5,0.5-2.7,1.5-3.4,3.1
		c-0.7,1.6-0.8,3-0.3,4.4c0.5,1.3,1.6,2.8,3.1,4.3c0.9,0.9,1.4,1.7,1.7,2.3c0.2,0.6,0.2,1.3-0.2,2.1c-0.3,0.7-0.8,1.2-1.5,1.4
		c-0.6,0.2-1.4,0.1-2.3-0.2c-0.7-0.3-1.2-0.7-1.7-1.1c-0.4-0.5-0.8-0.9-0.9-1.4l0.9-2.9l-2.4-1.1l-1.8,4c0.3,1.2,0.8,2.2,1.6,3.2
		c0.8,0.9,1.8,1.7,3,2.3c1.7,0.8,3.3,1,4.8,0.5c1.5-0.5,2.6-1.5,3.4-3.2c0.7-1.6,0.9-3.1,0.4-4.4c-0.4-1.4-1.4-2.8-2.8-4.1
		c-1-1-1.6-1.9-1.9-2.5c-0.3-0.6-0.3-1.3,0-1.9c0.3-0.7,0.8-1.2,1.5-1.4c0.7-0.2,1.4-0.2,2.3,0.2c0.6,0.3,1.1,0.6,1.6,1
		c0.4,0.4,0.8,0.8,0.9,1.1l-0.8,2.8l2.3,1.1l1.8-3.9C87.2,349.6,86.7,348.6,85.9,347.7z"/>
	<polygon class="st1" points="103.6,352.5 101.8,352.1 101.2,354.6 102.9,355.4 101.6,361.4 94.7,359.8 96.1,353.9 98,353.9 
		98.6,351.4 91.6,349.8 91.1,352.3 92.7,353.1 89.3,367.9 87.5,368 86.9,370.5 93.8,372 94.4,369.6 92.7,368.7 94,363 100.8,364.6 
		99.5,370.3 97.6,370.3 97.1,372.8 104,374.4 104.6,371.9 102.9,371.1 106.3,356.2 108.2,356.2 108.7,353.7 107,353.3 	"/>
	<path class="st1" d="M128.5,362.7c-1.4-0.4-2.3-0.9-2.9-1.3c-0.6-0.4-0.9-1-0.9-1.7c-0.1-0.8,0.2-1.4,0.6-1.9
		c0.5-0.5,1.2-0.8,2.1-0.9c0.6,0,1.3,0,1.8,0.1c0.6,0.1,1,0.3,1.3,0.5l0.6,2.9l2.6-0.2l-0.3-4.3c-0.8-0.8-1.7-1.4-2.9-1.8
		c-1.1-0.4-2.3-0.6-3.6-0.5c-1.8,0.1-3.2,0.8-4.3,2c-1.1,1.2-1.6,2.6-1.5,4.3c0.1,1.7,0.7,3.1,1.8,4c1.1,0.9,2.7,1.7,4.8,2.3
		c1.2,0.4,2,0.8,2.5,1.2s0.8,1.1,0.8,1.9c0.1,0.8-0.2,1.4-0.6,2c-0.5,0.5-1.2,0.8-2.1,0.9c-0.7,0-1.4,0-2-0.2
		c-0.6-0.2-1.1-0.4-1.5-0.8l-0.6-3l-2.7,0.2l0.3,4.4c0.8,0.9,1.8,1.6,2.9,2c1.1,0.5,2.4,0.6,3.7,0.6c1.9-0.1,3.4-0.7,4.5-1.9
		c1.1-1.1,1.6-2.6,1.5-4.4c-0.1-1.7-0.7-3.1-1.7-4.1C131.9,364,130.4,363.2,128.5,362.7z"/>
	<polygon class="st1" points="150.8,355.2 153.4,354.6 151.9,349.1 137.1,353 138.6,358.5 141.1,357.8 140.7,355.5 143.7,354.6 
		147.5,369.1 145.8,370 146.5,372.5 153.4,370.7 152.7,368.2 150.8,368.2 147,353.8 150.1,353 	"/>
	<path class="st1" d="M177.3,357.5c-0.3,0.1-0.6,0.1-0.9-0.1c-0.2-0.2-0.5-0.5-0.7-0.9l-0.5-1c-0.6-1.1-1.3-2-2-2.6
		c-0.8-0.6-1.7-0.8-2.8-0.7c0.6-0.8,0.9-1.7,1-2.6c0.1-0.9-0.2-1.8-0.6-2.8c-0.9-1.7-2.1-2.8-3.6-3.3c-1.5-0.5-3.1-0.3-4.8,0.6
		l-5.2,2.7l-1.6,0.8l1.2,2.3l1.8-0.4l6.9,13.6l-1.4,1.2l1.2,2.3l6.3-3.2l-1.2-2.3l-1.8,0.4l-2.5-5l2.5-1.3c0.7-0.3,1.4-0.3,2.1,0
		c0.7,0.3,1.2,0.9,1.7,1.9l0.5,1.1c0.5,1.1,1.2,1.8,1.9,2.3c0.7,0.5,1.6,0.4,2.6-0.1l1.6-0.8l-1.2-2.3L177.3,357.5z M168.1,351
		c-0.2,0.7-0.7,1.2-1.6,1.7l-2.1,1.1l-2.8-5.4l2.2-1.1c0.8-0.4,1.6-0.5,2.3-0.2s1.2,0.9,1.7,1.7C168.2,349.5,168.3,350.3,168.1,351z
		"/>
	<path class="st1" d="M190.6,337.7l-0.2-0.2c-1.9-2.4-4.1-3.9-6.5-4.6c-2.4-0.7-4.5-0.3-6.3,1.2c-1.8,1.5-2.6,3.4-2.4,5.9
		c0.2,2.5,1.2,4.9,3.2,7.3l0.2,0.2c2,2.4,4.1,4,6.5,4.6c2.4,0.7,4.5,0.3,6.3-1.2c1.8-1.5,2.6-3.4,2.5-5.9
		C193.7,342.6,192.6,340.1,190.6,337.7z M189.3,348.4c-1.1,0.9-2.4,1.1-3.8,0.4c-1.4-0.6-2.8-1.8-4.2-3.5l-0.2-0.3
		c-1.4-1.7-2.2-3.3-2.5-4.8c-0.3-1.5,0.1-2.7,1.2-3.6c1.1-0.9,2.4-1.1,3.8-0.5c1.4,0.6,2.8,1.8,4.2,3.5l0.2,0.3
		c1.4,1.7,2.3,3.4,2.5,4.9C190.8,346.3,190.4,347.5,189.3,348.4z"/>
	<polygon class="st1" points="198.8,315 196.8,313.5 195.6,314.9 192.4,319.1 194.4,320.7 195.9,319.5 204.8,326.4 204.8,326.5 
		189.2,323.2 187.1,325.9 186,327.3 188,328.9 189.5,327.7 201.5,337.1 200.7,338.8 202.7,340.4 207.1,334.7 205.1,333.2 
		203.6,334.4 194.7,327.4 194.7,327.4 210.3,330.7 212.4,328 198,316.8 	"/>
	<path class="st1" d="M200.9,304c-1,2.1-0.8,4.2,0.4,6.4c1.2,2.1,3.3,3.8,6.2,5.2l0.7,0.3c2.8,1.3,5.4,1.6,7.7,1.1
		c2.3-0.5,4-1.9,5-4c0.7-1.5,1-2.8,0.9-4c-0.1-1.2-0.3-2.2-0.7-3l-7.4-3.4l-2.4,5.4l2.7,1.2l1.2-2.1l3.3,1.5c0.1,0.3,0.1,0.7,0,1.1
		c0,0.4-0.2,1-0.5,1.6c-0.6,1.4-1.7,2.2-3.2,2.4c-1.5,0.2-3.2-0.1-5.2-1l-0.7-0.3c-2-0.9-3.5-2-4.4-3.4c-0.9-1.3-1-2.7-0.4-4
		c0.3-0.6,0.6-1.1,1-1.5c0.4-0.4,0.8-0.7,1.2-0.8l2.8,0.7l1.1-2.3l-3.9-1.8c-1.1,0.3-2.2,0.8-3.1,1.6
		C202.2,301.8,201.4,302.8,200.9,304z"/>
</g>
</svg>
