<svg xmlns="http://www.w3.org/2000/svg" viewBox="0 0 428.96 471.56">
  <defs>
    <style>
      .a, .d {
        fill: #fff;
      }

      .b {
        fill: #86c883;
      }

      .c {
        fill: #231f20;
      }

      .d {
        fill-rule: evenodd;
      }
    </style>
  </defs>
  <title>Artboard 1</title>
  <g>
    <g>
      <g>
        <path class="a" d="M371.78,412.92a254.32,254.32,0,0,1-317.24,0l158.12-200.6Z"/>
        <path class="b" d="M213.16,471.56A256.78,256.78,0,0,1,52.54,415.43l-2.49-2,2-2.5L212.65,207.16,376.27,413.44l-2.5,2a256.77,256.77,0,0,1-160.62,56.13ZM59,412.39a251.11,251.11,0,0,0,308.24,0L212.67,217.48Z"/>
      </g>
      <g>
        <path class="c" d="M85.42,406.34l0,0A8.86,8.86,0,0,1,98,403.68a9,9,0,0,1,4.31,6l-3.58,1A6.44,6.44,0,0,0,96,406.63a5.17,5.17,0,0,0-7.2,1.81l0,0a5.18,5.18,0,0,0,1.26,7.35,6.3,6.3,0,0,0,5,.78l.71,3.4a8.92,8.92,0,0,1-7.69-1.28A8.8,8.8,0,0,1,85.42,406.34Z"/>
        <path class="c" d="M105.47,408.7,117,415l-1.63,3-8.21-4.47-1.69,3.11,7.22,3.93-1.63,3-7.22-3.93-1.75,3.22,8.31,4.53-1.63,3L97.13,424Z"/>
        <path class="c" d="M119.31,416.15l3.23,1.44,3.1,13.14,4.37-9.81,3.46,1.54-7.09,15.94-3-1.33-3.21-13.57-4.51,10.13-3.46-1.54Z"/>
        <path class="c" d="M139.12,428.27l-5-1.77,1.18-3.33L148.92,428l-1.18,3.33-5-1.77-4.64,13.1-3.62-1.28Z"/>
        <path class="c" d="M150.65,428.51l7.7,2.09a7,7,0,0,1,4.44,3,5.48,5.48,0,0,1,.4,4.24v0a5.42,5.42,0,0,1-5,4.24l2.48,7.13-4.33-1.18-2.14-6.37-2.91-.79-1.47,5.39-3.7-1Zm5.23,10.21c1.8.49,3.1-.19,3.49-1.61v0c.43-1.59-.45-2.71-2.25-3.2l-3.68-1-1.32,4.83Z"/>
        <path class="c" d="M173.18,433.88l3.48.64,4.17,18.63-3.95-.73-.86-4.14L168.76,447l-2.28,3.56-3.85-.71Zm2.11,10.83-1.25-6-3.3,5.14Z"/>
        <path class="c" d="M185.59,436.09l3.82.4-1.47,13.88,8.65.92-.37,3.47-12.46-1.32Z"/>
        <path class="c" d="M203.93,438.09,208,438l3.8,11.75,3.72-11.92,3.29-.05,4.1,11.8,3.42-11.87,4-.06-5.68,17.66-3.34.05L217.26,444l-3.76,11.47-3.34.05Z"/>
        <path class="c" d="M232.27,437.17l3.82-.35,1.59,17.37-3.82.35Z"/>
        <path class="c" d="M239.31,451.57l1.87-3a8,8,0,0,0,5.45,1.38c1.55-.22,2.41-1,2.27-2v0c-.13-1-.79-1.37-3.78-1.71-3.6-.4-6-1.05-6.46-4.48v0c-.44-3.13,1.79-5.56,5.32-6a10.09,10.09,0,0,1,6.72,1.3l-1.58,3.14a8.18,8.18,0,0,0-4.73-1.08c-1.46.2-2.13,1-2,1.81v0c.16,1.14,1,1.4,4,1.75,3.63.43,5.78,1.41,6.2,4.42v0c.48,3.43-1.87,5.72-5.6,6.24A11.09,11.09,0,0,1,239.31,451.57Z"/>
        <path class="c" d="M254.2,443.28v0a8.86,8.86,0,0,1,7-10.73,9,9,0,0,1,7.29,1.18l-1.79,3.27a6.44,6.44,0,0,0-4.77-1,5.17,5.17,0,0,0-3.8,6.38v0a5.18,5.18,0,0,0,6.1,4.29,6.3,6.3,0,0,0,4.05-3l2.91,1.9a8.92,8.92,0,0,1-6.33,4.55A8.8,8.8,0,0,1,254.2,443.28Z"/>
        <path class="c" d="M271.7,439.47v0a9.27,9.27,0,0,1,17.71-5.5v0a9.27,9.27,0,0,1-17.71,5.5Zm13.89-4.27v0a5.3,5.3,0,0,0-6.66-3.69,5.22,5.22,0,0,0-3.41,6.73v0a5.3,5.3,0,0,0,6.66,3.69A5.22,5.22,0,0,0,285.58,435.2Z"/>
        <path class="c" d="M289.51,424.59l3.27-1.35,11.65,6.82-4.09-9.93,3.5-1.44,6.64,16.13-3,1.24-12-7,4.22,10.25-3.5,1.44Z"/>
        <path class="c" d="M312.36,431.13l.79-3.45a8,8,0,0,0,5.6-.46c1.4-.71,2-1.69,1.5-2.6l0,0c-.44-.87-1.2-1-4.13-.39-3.54.79-6,.95-7.56-2.14l0,0c-1.43-2.82-.11-5.84,3.07-7.45a10.09,10.09,0,0,1,6.78-1l-.47,3.48a8.19,8.19,0,0,0-4.82.52c-1.31.67-1.7,1.61-1.31,2.37l0,0c.52,1,1.35,1,4.39.34,3.57-.78,5.92-.54,7.3,2.17l0,0c1.56,3.09.09,6-3.27,7.72A11.09,11.09,0,0,1,312.36,431.13Z"/>
        <path class="c" d="M319.22,410.78l3.34-1.89L331.17,424l-3.34,1.89Z"/>
        <path class="c" d="M324.93,407.64l3-1.92,12.69,4.59-5.83-9,3.18-2.05,9.46,14.65-2.74,1.77-13.11-4.73,6,9.32-3.18,2.05Z"/>
      </g>
    </g>
    <g>
      <path class="a" d="M214.48,425.76C98,425.76,3.21,331,3.21,214.48S98,3.21,214.48,3.21,425.76,98,425.76,214.48,331,425.76,214.48,425.76Z"/>
      <path class="b" d="M214.48,6.41c114.91,0,208.07,93.16,208.07,208.07S329.38,422.55,214.48,422.55,6.41,329.4,6.41,214.48,99.58,6.41,214.48,6.41m0-6.41C96.21,0,0,96.22,0,214.48S96.21,429,214.48,429,429,332.75,429,214.48,332.74,0,214.48,0Z"/>
    </g>
    <path class="b" d="M364.91,214.63A150.58,150.58,0,1,1,214.33,64.06,150.59,150.59,0,0,1,364.91,214.63Z"/>
    <g>
      <path class="c" d="M30.43,162.71l2.17-5.52,17.75,1.4L36.52,147.07l1.74-4.41,18,1L42.31,132.59l2.12-5.38,20.41,17.28L63.08,149l-17.39-.76,13.23,11.32L57.15,164Z"/>
      <path class="c" d="M49.55,119.81l2.83-4.75L74,127.94l-2.83,4.75Z"/>
      <path class="c" d="M73.25,121.75l-1.17-5a11.54,11.54,0,0,0,7-4.18c1.36-1.81,1.46-3.44.28-4.33l-.06,0c-1.12-.84-2.21-.58-5.6,2.13-4.08,3.28-7.16,5.05-11.16,2.05l-.06,0c-3.65-2.74-3.87-7.48-.78-11.6a14.56,14.56,0,0,1,8.17-5.56l1.61,4.8a11.81,11.81,0,0,0-5.91,3.74c-1.27,1.7-1.16,3.17-.19,3.9l.06,0c1.32,1,2.4.45,5.9-2.36,4.13-3.28,7.32-4.48,10.83-1.85l.06,0c4,3,4,7.73.7,12.07A16,16,0,0,1,73.25,121.75Z"/>
      <path class="c" d="M81.94,96l-.05-.05a12.78,12.78,0,0,1,.25-18.47,13,13,0,0,1,9.8-4.18l.33,5.36a9.28,9.28,0,0,0-6.58,2.48c-3,3-2.74,7.62.28,10.7l.05.05c3,3.08,7.67,3.55,10.74.53,2.05-2,2.5-4.07,2.65-6.73l5,.07a12.85,12.85,0,0,1-4.21,10.43A12.7,12.7,0,0,1,81.94,96Z"/>
      <path class="c" d="M102.5,76.24l0-.06a13,13,0,0,1,3.63-18.33c6.38-4.42,14.26-2.83,18.33,3.06l0,.06a13,13,0,0,1-3.62,18.33C114.44,83.71,106.57,82.12,102.5,76.24Zm17.23-11.92,0-.06a7.64,7.64,0,0,0-10.76-2.17,7.52,7.52,0,0,0-1.75,10.74l0,.06A7.64,7.64,0,0,0,118,75.06,7.52,7.52,0,0,0,119.73,64.32Z"/>
      <path class="c" d="M126.25,45.8l4.65-2.09L148,53l-6.35-14.13,5-2.24L157,59.58l-4.29,1.93L135,51.92l6.56,14.59-5,2.24Z"/>
      <path class="c" d="M160.51,54.51l2.14-4.63a11.54,11.54,0,0,0,8,1c2.19-.59,3.27-1.81,2.89-3.23l0-.07c-.36-1.35-1.38-1.82-5.72-1.77-5.23.07-8.75-.43-10-5.26l0-.07c-1.19-4.41,1.57-8.27,6.53-9.61a14.56,14.56,0,0,1,9.85.66l-1.69,4.77a11.8,11.8,0,0,0-7-.69c-2,.55-2.87,1.78-2.55,3l0,.07c.43,1.6,1.61,1.84,6.1,1.78,5.27,0,8.53,1,9.67,5.21l0,.07c1.3,4.82-1.65,8.52-6.89,9.93A16,16,0,0,1,160.51,54.51Z"/>
      <path class="c" d="M181.78,27.34l5.47-.86,3.92,24.85-5.47.86Z"/>
      <path class="c" d="M196.62,25.07l5.1-.17L214,40l-.53-15.48,5.46-.19.85,25.14-4.71.16L202.39,34l.54,16-5.46.19Z"/>
      <path class="c" d="M241.33,26.28l18.81,3.57-.94,4.94-13.38-2.54-1,5.26,11.79,2.24-.94,4.94-11.79-2.24L242.07,52l-5.44-1Z"/>
      <path class="c" d="M267.24,32l5.29,1.62L265.19,57.7l-5.29-1.62Z"/>
      <path class="c" d="M281.63,36.49l4.66,2.08,4.44,18.95L297,43.39l5,2.23-10.27,23-4.3-1.92-4.59-19.57-6.53,14.6-5-2.23Z"/>
      <path class="c" d="M310.23,50.49,315,53.35l-13,21.53L297.21,72Z"/>
      <path class="c" d="M308.13,74.18l5-1.14a11.53,11.53,0,0,0,4.13,7c1.8,1.37,3.43,1.48,4.33.31l0-.06c.85-1.12.59-2.21-2.1-5.61-3.25-4.09-5-7.19-2-11.17l0-.06c2.76-3.63,7.5-3.82,11.6-.71a14.55,14.55,0,0,1,5.51,8.2l-4.81,1.58a11.8,11.8,0,0,0-3.71-5.93c-1.69-1.28-3.16-1.18-3.9-.21l0,.06c-1,1.32-.47,2.4,2.32,5.92,3.26,4.15,4.44,7.34,1.79,10.83l0,.06c-3,4-7.75,3.91-12.07.62A16,16,0,0,1,308.13,74.18Z"/>
      <path class="c" d="M343.84,75.11l3.84,4L340.51,86l7.08,7.35,7.17-6.91,3.84,4-18.11,17.46-3.84-4,7.27-7-7.08-7.35-7.27,7-3.84-4Z"/>
      <path class="c" d="M364.33,97.85l3.34,4.41-20.06,15.17L344.27,113Z"/>
      <path class="c" d="M373.36,109.89l2.55,4.42-7.5,18,13.4-7.76,2.74,4.73-21.77,12.6-2.36-4.07,7.74-18.55-13.84,8-2.74-4.73Z"/>
      <path class="c" d="M376.94,142.49l.07,0a12.91,12.91,0,0,1,16.74,7.94,13.82,13.82,0,0,1,.14,10.47L388.75,159a9.26,9.26,0,0,0,.15-7.05c-1.38-3.78-5.82-5.57-9.83-4.11l-.07,0c-4.32,1.57-6.42,5.7-4.89,9.89a8.82,8.82,0,0,0,3.2,4.38l3.38-1.23-1.91-5.23,4.49-1.64L387,164.33l-10.27,3.74a16.33,16.33,0,0,1-7.43-8.73C366.63,152,370,145,376.94,142.49Z"/>
    </g>
    <g>
      <path class="c" d="M34.78,203h.07a12.79,12.79,0,0,1,12.92,13.2,13,13,0,0,1-3.94,9.89l-4-3.55a9.29,9.29,0,0,0,2.88-6.42c0-4.24-3.48-7.32-7.79-7.35h-.07c-4.31,0-7.93,2.93-8,7.24,0,2.88,1.12,4.64,2.9,6.63l-3.58,3.5a12.86,12.86,0,0,1-4.43-10.34A12.7,12.7,0,0,1,34.78,203Z"/>
      <path class="c" d="M35,231.6h.07a13,13,0,0,1,15.06,11c1.29,7.65-3.48,14.11-10.53,15.3h-.07a13,13,0,0,1-15.06-11C23.17,239.25,27.95,232.79,35,231.6Zm3.49,20.66h.07a7.64,7.64,0,0,0,6.53-8.83,7.52,7.52,0,0,0-9-6.13H36a7.64,7.64,0,0,0-6.53,8.83A7.52,7.52,0,0,0,38.49,252.26Z"/>
      <path class="c" d="M53.61,261.41l1.75,4.79L44.85,282.58l14.55-5.31,1.87,5.13L37.64,291,36,286.61l10.85-16.93-15,5.48L30,270Z"/>
      <path class="c" d="M62.32,295.41l-3.71-6.7,4.46-2.47,10.09,18.23-4.46,2.47L65,300.25,47.46,310l-2.68-4.84Z"/>
      <path class="c" d="M75.34,307.73l7,9.15c1.94,2.54,2.72,5.06,2.41,7.38a7.89,7.89,0,0,1-3.27,5.2l-.06,0a7.81,7.81,0,0,1-9.47.43L68.5,340.26l-3.92-5.15L67.72,326l-2.63-3.46-6.4,4.88L55.33,323Zm-3,16.26c1.63,2.14,3.71,2.5,5.4,1.22l.06,0c1.89-1.44,1.86-3.49.22-5.64l-3.33-4.37L69,319.53Z"/>
      <path class="c" d="M97.94,334.12l3.71,3.5-9.56,25.82-4.21-4,2.2-5.68-7.73-7.3L76.81,349l-4.1-3.87ZM92,348.88l3.17-8.22-8,3.63Z"/>
      <path class="c" d="M103.16,356.17l0-.06a12.78,12.78,0,0,1,18.18-3.27,13,13,0,0,1,6,8.82l-5.2,1.34a9.29,9.29,0,0,0-3.69-6c-3.49-2.41-8-1.24-10.45,2.31l0,.06c-2.45,3.55-2,8.2,1.52,10.65,2.37,1.63,4.47,1.68,7.12,1.33l.88,4.93a12.86,12.86,0,0,1-11-2.15A12.7,12.7,0,0,1,103.16,356.17Z"/>
      <path class="c" d="M136.15,368l-6.87-3.37,2.25-4.58,18.71,9.17L148,373.77l-6.87-3.37-8.83,18-5-2.44Z"/>
      <path class="c" d="M148.34,382.25l0-.07A13,13,0,0,1,165,373.72c7.42,2.3,11,9.47,8.91,16.31l0,.07a13,13,0,0,1-16.66,8.46C149.83,396.26,146.22,389.08,148.34,382.25Zm20,6.2,0-.07a7.64,7.64,0,0,0-4.94-9.81,7.52,7.52,0,0,0-9.53,5.25l0,.07a7.64,7.64,0,0,0,4.94,9.81A7.52,7.52,0,0,0,168.35,388.45Z"/>
      <path class="c" d="M183.06,379l11.41,1.46c3.17.41,5.52,1.61,6.95,3.46a7.9,7.9,0,0,1,1.41,6v.07a7.81,7.81,0,0,1-6.33,7.05l5,9.69-6.42-.82-4.33-8.67-4.31-.55-1,8-5.49-.7Zm9.5,13.53c2.67.34,4.39-.89,4.66-3v-.07c.3-2.35-1.18-3.77-3.86-4.12l-5.45-.7-.92,7.16Z"/>
      <path class="c" d="M207.65,403.29l3.17-4a11.53,11.53,0,0,0,7.59,2.86c2.26-.06,3.61-1,3.57-2.46v-.07c0-1.4-.92-2.1-5.15-3.07-5.1-1.16-8.4-2.48-8.53-7.47V389c-.12-4.56,3.47-7.67,8.61-7.81a14.56,14.56,0,0,1,9.42,3l-2.77,4.24a11.81,11.81,0,0,0-6.6-2.31c-2.12.05-3.21,1.05-3.18,2.28v.07c0,1.65,1.13,2.16,5.51,3.16,5.14,1.2,8.06,3,8.17,7.34V399c.13,5-3.61,7.89-9,8A16,16,0,0,1,207.65,403.29Z"/>
      <path class="c" d="M246.83,378.24l5-1.07,15.83,22.51L262,400.89l-3.43-5-10.4,2.22-1.07,6-5.52,1.18Zm8.79,13.26-5-7.27-1.56,8.67Z"/>
      <path class="c" d="M271.57,394.47l1.67-4.82a11.54,11.54,0,0,0,8.11.19c2.12-.8,3.08-2.13,2.55-3.51l0-.07c-.5-1.31-1.56-1.68-5.87-1.19-5.2.59-8.75.44-10.52-4.23l0-.07c-1.62-4.27.74-8.39,5.54-10.21a14.56,14.56,0,0,1,9.87-.32l-1.21,4.92a11.8,11.8,0,0,0-7,0c-2,.75-2.68,2.05-2.25,3.2l0,.07c.59,1.54,1.79,1.67,6.25,1.17,5.24-.57,8.58.13,10.14,4.23l0,.07c1.77,4.67-.8,8.64-5.87,10.57A16,16,0,0,1,271.57,394.47Z"/>
      <path class="c" d="M294.54,385.45l1-5a11.54,11.54,0,0,0,8.06-.87c2-1.07,2.77-2.51,2.07-3.81l0-.06c-.67-1.23-1.76-1.46-6-.41-5.07,1.27-8.62,1.58-11-2.82l0-.06c-2.17-4-.37-8.41,4.15-10.85a14.56,14.56,0,0,1,9.74-1.62l-.55,5a11.81,11.81,0,0,0-6.93.92c-1.87,1-2.39,2.39-1.81,3.46l0,.06c.78,1.46,2,1.42,6.34.34,5.12-1.25,8.52-1,10.6,2.86l0,.06c2.37,4.4.35,8.67-4.43,11.25A16,16,0,0,1,294.54,385.45Z"/>
      <path class="c" d="M313,365.25l0-.06a13,13,0,0,1,2.7-18.48c6.15-4.73,14.1-3.54,18.45,2.13l0,.06a13,13,0,0,1-2.7,18.48C325.31,372.11,317.37,370.92,313,365.25Zm16.61-12.77,0-.06a7.64,7.64,0,0,0-10.86-1.62,7.52,7.52,0,0,0-1.21,10.81l0,.06a7.64,7.64,0,0,0,10.86,1.63A7.52,7.52,0,0,0,329.62,352.49Z"/>
      <path class="c" d="M339,344.38l-.05,0a12.79,12.79,0,0,1-.72-18.46,13,13,0,0,1,9.57-4.68l.61,5.34a9.29,9.29,0,0,0-6.44,2.82c-2.87,3.12-2.34,7.76.84,10.67l.05,0c3.18,2.92,7.84,3.15,10.76,0,1.94-2.12,2.29-4.2,2.3-6.87l5-.19a12.86,12.86,0,0,1-3.66,10.64A12.7,12.7,0,0,1,339,344.38Z"/>
      <path class="c" d="M346.89,316.08l3.29-4.45,20.22,15L367.11,331Z"/>
      <path class="c" d="M357.42,300.26l2.56-4.42,27.33,3.35-2.9,5-6-.83L373,312.57l3.73,4.82-2.83,4.88Zm15.73,2.37-8.73-1.19,5.39,7Z"/>
      <path class="c" d="M372.15,283.14l-2.93,7.07-4.71-2,8-19.25,4.71,2L374.27,278l18.52,7.69-2.12,5.11Z"/>
      <path class="c" d="M373,266.53l1.63-5.29,24,7.42L397,273.95Z"/>
      <path class="c" d="M388.68,259.66h-.07a13,13,0,0,1-10.44-15.49c1.37-7.64,8-12.1,15.09-10.84h.07a13,13,0,0,1,10.44,15.49C402.39,256.46,395.72,260.93,388.68,259.66Zm3.7-20.62h-.07a7.64,7.64,0,0,0-9.12,6.11,7.52,7.52,0,0,0,6.38,8.81h.07a7.64,7.64,0,0,0,9.13-6.1A7.52,7.52,0,0,0,392.37,239Z"/>
      <path class="c" d="M381.13,225.31l0-5.1,15.57-11.69-15.49-.1,0-5.46,25.16.16,0,4.71-16.07,12.08,16,.1,0,5.46Z"/>
    </g>
    <path class="d" d="M184.38,89.66c-2.55,2.08-3,6.25-4.43,9.48a21,21,0,0,0,2.63,3.42c1.51.55,3.07.17,4.62.41,5.8.86,10.94,3.61,15.51,6,2.13,1.13,4,2,5.24,3.83-.06,2.36-.52,5.05.4,6.85,6.07,1.48,10.94,2.93,17.33,4,1.93,1,5.13,1.59,7,2,.6,0,.7.38,1,.6a15.32,15.32,0,0,1,3.42.61c.15.05.47.35,1,.59,1.33.63,3.78,1.31,5,1.82.51.2,1,.7,1.42.81s.86-.35,1.2-.21.47.75.61.82c.78.38,1.81.23,2.62.59.38.17.81.61,1.21.81,1.7.87,3.39,1.83,5.23,2.82.85.46,1.62.8,2.63,1.42,1.32.79,3.41,1.54,5,2.61,6,1.15,11.35,3,17.11,4.43a4.92,4.92,0,0,0,2-.2,6.29,6.29,0,0,0,4.22.81c2.27,1.62,2.73,5.06,4.24,7.46,3,.3,4.47,2.1,7.85,2a20.94,20.94,0,0,1,2.81,3.23c1.06,5-.15,9.25.21,13.89-.72,2-2.19,3.32-3.22,5,2.76-1.47,5.64-3.08,9.26-1.2-.48,3.35-1.07,6-3,8.25a15.19,15.19,0,0,0,.4,4.63,44.77,44.77,0,0,1,4.64,3.23c-.32,2.23-1.21,3.9-1.22,6.44a37.27,37.27,0,0,0-3.42,4.43c-3.11,1.26-6.3,2.43-8.06,5,.66,2.45-.2,4.62-.81,6.45-.83.25-1.14,1-2.41.8-.86,2.3-3,6.64-1.81,9.66a4.39,4.39,0,0,0,2.82,2.22c2.95,0,2.86-4.93,6.85-4.43,2.42-4.16,3.64-9.51,7-12.69,4.08,1.3,4.31-4.24,8.26-1.82,1.26-1.21-.4-2.6-.4-3.83,4-4.24,5.27-11.25,9.27-15.5,5.85,0,3.81-8.72,9.87-7.86-.69,2.91-2.61,5.19-1.82,9.47-1,3.77-5.63,4.37-7.24,7.66s-.17,8.09-2.42,11.47a15,15,0,0,1-2.42,1.42c-.76,2.75-1.85,4.9-1.81,7.65-3.52,5.93-8.42,13.7-6.65,22.36-.54,4.36-2.68,7.13-4,10.68-2.79,1.74-3.71,4.78-3.44,8.06.12,1.25,1,2.38,1.22,3.62.18,1,0,2.25.2,3.42.5,3.34.38,3.51-1.21,6.44-.33.61-.44,1.2-.81,1.81s-1,1-1.2,1.42,0,.89-.21,1.2c-.35.49-1.1.73-1.41,1.2-1.18,1.89-.51,4.28-.81,7.05-.34,3.26-2.27,6.06-4,8.26-.14,9.06-.11,16.87,1.41,25,1.36,2.6,2.94,5.12,2.82,8.25-.06,1.43-.88,2.69-1.42,4.24-.75,2.15-1.89,4.7-1.41,8,.16,1.11.9,1.43.6,2.83-38.43.93-78.6.13-117.81.4-.31-3.9-2.49-7.55-4.63-10.27a24.75,24.75,0,0,1-9.07-2.62c-3.09-3.4-3-8.89-6.44-12.09,1-3.19.12-6.52.61-9.86.46-3.14,2-6.22,2.61-8.86-.3-2.8-.06-4.9-.6-7.45-1.57-2.65-3.46-5-5-7.65,1.09-4.11.31-9.82.61-13.9-1.18-1.54-1.16-5.21-2-7.45-.94-2.45-4-4.42-6.24-6-2.57-1.84-5.19-3.22-7.45-4.63-5.4-3.36-8.44-8-12.49-11.68-.4-1.27-1.27-2.09-1.61-3.42-2.38-3.49-6.81-6.31-10.88-8.86a57.14,57.14,0,0,0-8.85-4.23,40.61,40.61,0,0,0-5.45-4.42c-2.58-3.39-5.11-6.26-7.25-9.67.8-2.15,1.63-4.09,2.62-6.45.78-4.52.56-9.07,2.62-12.48a20.24,20.24,0,0,1-.8-9.07c.43-2.29,3.12-5.24,4.23-7.05a3.55,3.55,0,0,1,.4-2.81c-.11-1.42-1-2.12-.8-3.83-1.45-1.34-2.39-3.34-4.43-4-1.87-.63-4.34-.31-5.63-2.22.14-3.42-.75-7.87,1.81-8.86a8.62,8.62,0,0,1,2.83.2c.84-.49,1.24-1.44,2.41-1.62.72-2.23,1.17-4.74,1.82-7,4-2.77,8.31-5.25,12.28-8.06,1.57.65,2.8-.66,4.23-.81-.49-2,.4-3.48.61-5.43s-.27-3.81,0-5.44c.08-.51.53-1.08.6-1.61.2-1.62-.13-3.35,0-5,.11-1.37.71-2.69.81-4,.25-3.37-.34-7.1.4-10.07.5-2,3.32-3.46,4.84-5,.88-.93,1.2-2,2.22-2.63,2.88-.25,4.62,3.26,7.65,3.64,4.81.6,8.66-.91,13.09-.81.66-.55.87-1.54,1.41-2.21a29.22,29.22,0,0,0,5.85-2.62,42.07,42.07,0,0,1,7.24-3.82,17.73,17.73,0,0,1,1.82-.81c1.37-.24,2.94.48,4.43.2,1-.2,1.79-1.4,3-1.82a15.31,15.31,0,0,1,5.63-.8c.47.07.06.38.6.61s.93,0,1.22.2C183.4,87.32,183.51,88.64,184.38,89.66Z"/>
    <circle class="b" cx="37.02" cy="182.29" r="5.56"/>
    <circle class="b" cx="389.35" cy="182.29" r="5.56"/>
    <g>
      <path class="c" d="M99.85,178.57V181a15.66,15.66,0,0,0-5,1q-1.36.69-1.36,3.16a9.08,9.08,0,0,0,.15,1.51,13.65,13.65,0,0,0,.44,1.8L106.46,224h.21l11.55-29.62a26.49,26.49,0,0,0-1.41-4.52,39.94,39.94,0,0,0-2.11-5.26,7.16,7.16,0,0,0-2.49-2.52,13.22,13.22,0,0,0-4.91-1v-2.47h31.6V181a23.22,23.22,0,0,0-5.8.94,2.56,2.56,0,0,0-1.46,2.67,10.65,10.65,0,0,0,.32,1.9q.32,1.41,1.11,3.88L144.68,223h-.42l11-33.27a15.34,15.34,0,0,0,.49-1.9,11.83,11.83,0,0,0,.2-2.25,3.69,3.69,0,0,0-2.12-3.76A15.39,15.39,0,0,0,149,181v-2.47h18.51V181a9.07,9.07,0,0,0-3.6,1.19,9.93,9.93,0,0,0-3.46,5.29l-20.24,61.05h-2.67l-17-47.46h-.69l-18.51,47.46H98.51L77.14,187.52q-1.38-3.94-2.76-5A9,9,0,0,0,70.08,181v-2.47Z"/>
      <path class="c" d="M171,244.33q4.34-.15,6.17-1.18,2.81-1.58,2.81-5.92V188.3q0-4.39-2.76-5.92-1.68-.94-6.22-1.23v-2.57h57.31V199h-2.47q-1.88-9.43-6.32-13.21T203.12,182q-4.44,0-5.65,1t-1.21,3.78v23.4q8.19.15,11.08-3.46t4.37-11.5h2.57v34.16H211.7q-1-8.19-4.17-11.95t-11.28-3.75v23.55q0,4.69,2.74,5.95t8.37,1.16v2.57H171Z"/>
      <path class="c" d="M278.94,179.64a52.37,52.37,0,0,0,7.21,2.35,3.72,3.72,0,0,0,3.08-1.48,7,7,0,0,0,1.46-3.11h2.81V201h-2.57a55.19,55.19,0,0,0-7.45-12.14q-7.1-8.19-16.07-8.19-10.16,0-14.42,8.76T248.73,213q0,10.86,2.51,17.87Q255.93,244,268.65,244a26.16,26.16,0,0,0,14.5-4.34,54.42,54.42,0,0,0,9.07-8l3,2.47a57.61,57.61,0,0,1-10.41,9.58A31.56,31.56,0,0,1,267,248.92q-15,0-25.08-8.89-11.21-9.82-11.2-26.46,0-16.49,10.71-26.71,10.07-9.58,24.68-9.58A37.36,37.36,0,0,1,278.94,179.64Z"/>
      <path class="c" d="M289.76,244.33a7.6,7.6,0,0,0,5.87-3.31,46.12,46.12,0,0,0,4.1-8.49l22.46-55.34H325l22.56,53.12q3.8,8.94,5.68,11.53a6,6,0,0,0,5.33,2.49v2.57H325.85v-2.57a23.06,23.06,0,0,0,6.49-.84q1.56-.64,1.56-3.26a13,13,0,0,0-.79-3.6q-.49-1.43-1.33-3.46l-2.57-6.12H306.5q-2.22,6-2.87,7.85a20.2,20.2,0,0,0-1.33,5.68q0,2.17,2.91,3.16a19.33,19.33,0,0,0,5.18.59v2.57H289.76Zm38-21.28L318,199.65h-.85L308,223.05Z"/>
    </g>
  </g>
</svg>
